<?xml version="1.0" encoding="UTF-8" standalone="no"?>
<!DOCTYPE svg PUBLIC "-//W3C//DTD SVG 1.1//EN" "http://www.w3.org/Graphics/SVG/1.1/DTD/svg11.dtd">
<svg width="100%" height="100%" viewBox="0 0 2055 449" version="1.1" xmlns="http://www.w3.org/2000/svg" xmlns:xlink="http://www.w3.org/1999/xlink" xml:space="preserve" xmlns:serif="http://www.serif.com/" style="fill-rule:evenodd;clip-rule:evenodd;stroke-linejoin:round;stroke-miterlimit:2;">
    <defs>
        <style type="text/css"><![CDATA[
            @font-face {
                font-family: 'Racer';
                src: url('../../fonts/racer-webfont.woff2') format('woff2'),
                     url('../../fonts/racer-webfont.woff') format('woff');
                font-weight: normal;
                font-style: normal;
            }
        ]]></style>
    </defs>
    <g id="No-Wings-Blue" serif:id="No Wings Blue" transform="matrix(4.270267,0,0,4.715602,475.989373,-37.307338)">
        <path d="M12.811,90.191C7.773,85.155 5,78.481 5,71.399L5.011,57.434C5,50.35 7.774,43.678 12.81,38.641C17.846,33.604 24.519,30.83 31.601,30.83L31.603,30.842L227.549,30.842C232.625,30.842 237.541,32.26 241.766,34.943L244.142,36.638C244.143,36.638 246.352,38.628 246.352,38.628C248.463,40.727 250.173,43.107 251.45,45.707L252.138,47.232C253.477,50.465 254.155,53.895 254.155,57.429L254.143,71.397C254.143,76.473 252.725,81.388 250.042,85.611C250.042,85.613 248.35,87.986 248.35,87.986C248.349,87.987 246.358,90.2 246.358,90.2C244.245,92.311 241.864,94.024 239.277,95.295C239.271,95.298 237.749,95.984 237.749,95.984C234.52,97.322 231.09,98 227.553,98L31.603,98C24.519,98 17.847,95.227 12.811,90.191ZM9.273,35.106C3.294,41.086 0,49.014 0,57.428L0.011,71.397C0,79.817 3.294,87.746 9.275,93.727C15.256,99.707 23.184,103 31.598,103L227.549,103C231.75,103 235.825,102.195 239.661,100.605L241.488,99.78C244.563,98.27 247.391,96.234 249.89,93.735C249.897,93.731 252.25,91.116 252.25,91.116L254.264,88.291C257.456,83.266 259.143,77.424 259.143,71.397L259.143,57.434C259.155,53.235 258.349,49.162 256.759,45.324L255.939,43.505C254.418,40.409 252.388,37.58 249.903,35.096C249.887,35.093 247.268,32.736 247.268,32.736L244.447,30.723C239.418,27.53 233.576,25.842 227.549,25.842L31.603,25.842L31.601,25.83C23.183,25.83 15.254,29.125 9.273,35.106Z" style="fill:white;fill-rule:nonzero;"/>
    </g>
    <g id="lakota-Robotics--White-" serif:id="lakota Robotics (White)" transform="matrix(1,0,0,1,-2.154175,0)">
        <g transform="matrix(4.166667,0,0,4.166667,0,-1.991653)">
            <path d="M129.418,0.929C129.711,1.223 129.856,1.576 129.856,1.99L129.856,10.856C129.856,11.351 130.028,11.768 130.369,12.108C130.709,12.448 131.126,12.618 131.621,12.618L139.256,12.618C139.657,12.618 139.857,12.416 139.857,12.01C139.857,11.605 140,11.258 140.287,10.967C140.572,10.677 140.921,10.531 141.334,10.531C141.747,10.531 142.095,10.675 142.381,10.961C142.667,11.248 142.811,11.598 142.811,12.011C142.811,12.998 142.463,13.838 141.77,14.531C141.077,15.225 140.243,15.571 139.269,15.571L131.626,15.571C130.319,15.571 129.205,15.111 128.285,14.191C127.364,13.271 126.904,12.157 126.904,10.851L126.904,1.989C126.904,1.576 127.047,1.226 127.333,0.939C127.619,0.652 127.968,0.509 128.381,0.509C128.793,0.509 129.139,0.649 129.418,0.929Z" style="fill:white;fill-rule:nonzero;"/>
        </g>
        <g transform="matrix(4.166667,0,0,4.166667,0,-1.991653)">
            <path d="M149.029,8.337L157.369,8.337L156.648,5.11C156.568,4.709 156.362,4.379 156.028,4.118C155.695,3.858 155.329,3.728 154.928,3.728L151.449,3.728C151.062,3.728 150.702,3.861 150.369,4.128C150.035,4.395 149.829,4.723 149.749,5.11L149.029,8.337ZM161.688,14.037L161.729,14.356C161.729,14.771 161.579,15.12 161.279,15.407C160.979,15.693 160.628,15.837 160.229,15.837C159.869,15.837 159.558,15.727 159.298,15.507C159.039,15.286 158.869,15.009 158.789,14.675L158.029,11.29L148.348,11.29L147.608,14.675C147.528,15.009 147.355,15.286 147.088,15.507C146.822,15.727 146.508,15.837 146.148,15.837C145.749,15.837 145.402,15.693 145.108,15.407C144.815,15.12 144.668,14.771 144.668,14.356L144.708,14.037L146.848,4.475C147.088,3.408 147.638,2.525 148.499,1.825C149.358,1.124 150.342,0.774 151.449,0.774L154.928,0.774C156.048,0.774 157.039,1.124 157.898,1.825C158.758,2.525 159.308,3.401 159.548,4.455L161.688,14.037Z" style="fill:white;fill-rule:nonzero;"/>
        </g>
        <g transform="matrix(4.166667,0,0,4.166667,0,-1.991653)">
            <path d="M165.473,5.878L172.331,5.878C172.73,5.878 173.093,5.754 173.42,5.508C173.747,5.261 173.963,4.924 174.07,4.498L174.73,1.618C174.81,1.271 174.983,0.994 175.25,0.788C175.516,0.581 175.83,0.478 176.189,0.478C176.589,0.478 176.936,0.624 177.229,0.918C177.522,1.212 177.668,1.565 177.668,1.979L177.628,2.319L176.989,5.162C176.842,5.79 176.582,6.363 176.208,6.884C176.662,7.231 177.032,7.635 177.319,8.095C177.605,8.556 177.815,9.066 177.949,9.626L178.969,14.031L179.009,14.371C179.009,14.785 178.859,15.135 178.559,15.422C178.259,15.709 177.909,15.853 177.509,15.853C177.149,15.853 176.836,15.742 176.57,15.522C176.303,15.303 176.129,15.033 176.05,14.713L175.03,10.272C174.977,10.046 174.903,9.856 174.81,9.703C174.717,9.549 174.583,9.406 174.41,9.272C174.077,9.019 173.71,8.893 173.311,8.893L165.473,8.893L165.473,14.373C165.473,14.786 165.33,15.136 165.042,15.423C164.755,15.709 164.405,15.853 163.991,15.853C163.577,15.853 163.223,15.706 162.929,15.412C162.635,15.119 162.489,14.765 162.489,14.351L162.489,1.979C162.489,1.565 162.635,1.212 162.929,0.918C163.223,0.624 163.577,0.478 163.991,0.478C164.405,0.478 164.755,0.628 165.042,0.928C165.33,1.228 165.473,1.578 165.473,1.978L165.473,5.878Z" style="fill:white;fill-rule:nonzero;"/>
        </g>
        <g transform="matrix(4.166667,0,0,4.166667,0,-1.991653)">
            <path d="M183.23,10.935C183.23,11.401 183.397,11.801 183.73,12.134C184.063,12.467 184.468,12.634 184.948,12.634L191.279,12.634C191.758,12.634 192.164,12.467 192.497,12.134C192.83,11.801 192.996,11.401 192.996,10.935L192.996,5.395C192.996,4.93 192.83,4.529 192.497,4.196C192.164,3.863 191.758,3.696 191.279,3.696L184.948,3.696C184.468,3.696 184.063,3.863 183.73,4.196C183.397,4.529 183.23,4.93 183.23,5.395L183.23,10.935ZM180.309,5.394C180.309,4.128 180.762,3.041 181.668,2.135C182.574,1.228 183.667,0.774 184.947,0.774L191.284,0.774C192.563,0.774 193.653,1.231 194.553,2.144C195.453,3.058 195.902,4.142 195.902,5.394L195.902,10.936C195.902,12.202 195.449,13.289 194.542,14.195C193.636,15.103 192.55,15.556 191.284,15.556L184.947,15.556C183.667,15.556 182.574,15.103 181.668,14.195C180.762,13.289 180.309,12.202 180.309,10.936L180.309,5.394Z" style="fill:white;fill-rule:nonzero;"/>
        </g>
        <g transform="matrix(4.166667,0,0,4.166667,0,-1.991653)">
            <path d="M212.708,0.774C213.122,0.774 213.471,0.917 213.758,1.203C214.045,1.489 214.188,1.839 214.188,2.251C214.188,2.664 214.045,3.013 213.758,3.299C213.471,3.585 213.122,3.728 212.708,3.728L207.608,3.728L207.608,14.355C207.608,14.77 207.458,15.12 207.16,15.407C206.86,15.693 206.518,15.837 206.131,15.837C205.719,15.837 205.37,15.693 205.084,15.407C204.798,15.12 204.655,14.77 204.655,14.355L204.655,3.728L199.59,3.728C199.176,3.728 198.826,3.585 198.539,3.299C198.251,3.013 198.108,2.664 198.108,2.251C198.108,1.839 198.251,1.489 198.539,1.203C198.825,0.917 199.175,0.774 199.588,0.774L212.708,0.774Z" style="fill:white;fill-rule:nonzero;"/>
        </g>
        <g transform="matrix(4.166667,0,0,4.166667,0,-1.991653)">
            <path d="M220.068,8.337L228.408,8.337L227.688,5.11C227.608,4.709 227.401,4.379 227.068,4.118C226.735,3.858 226.368,3.728 225.968,3.728L222.488,3.728C222.101,3.728 221.741,3.861 221.408,4.128C221.075,4.395 220.868,4.723 220.788,5.11L220.068,8.337ZM232.728,14.037L232.768,14.356C232.768,14.771 232.618,15.12 232.318,15.407C232.018,15.693 231.668,15.837 231.268,15.837C230.908,15.837 230.598,15.727 230.338,15.507C230.078,15.286 229.908,15.009 229.829,14.675L229.068,11.29L219.388,11.29L218.648,14.675C218.568,15.009 218.395,15.286 218.127,15.507C217.862,15.727 217.547,15.837 217.188,15.837C216.788,15.837 216.441,15.693 216.148,15.407C215.854,15.12 215.708,14.771 215.708,14.356L215.749,14.037L217.888,4.475C218.127,3.408 218.678,2.525 219.538,1.825C220.398,1.124 221.381,0.774 222.488,0.774L225.968,0.774C227.088,0.774 228.078,1.124 228.938,1.825C229.797,2.525 230.348,3.401 230.588,4.455L232.728,14.037Z" style="fill:white;fill-rule:nonzero;"/>
        </g>
        <g transform="matrix(4.166667,0,0,4.166667,0,-1.991653)">
            <path d="M243.708,0.774L251.184,0.774C252.463,0.774 253.553,1.231 254.452,2.144C255.352,3.058 255.802,4.141 255.802,5.394C255.802,6.461 255.465,7.421 254.793,8.274C254.12,9.127 253.251,9.674 252.186,9.914L247.829,10.894C247.363,11.001 247.13,11.287 247.13,11.754C247.13,12.007 247.22,12.217 247.399,12.384C247.58,12.551 247.789,12.634 248.029,12.634L253.849,12.634C254.248,12.634 254.588,12.777 254.868,13.064C255.148,13.351 255.288,13.694 255.288,14.095C255.288,14.481 255.148,14.822 254.868,15.115C254.588,15.409 254.248,15.556 253.848,15.556L248.025,15.556C246.972,15.556 246.075,15.186 245.334,14.444C244.594,13.703 244.224,12.806 244.224,11.751C244.224,10.87 244.497,10.082 245.043,9.388C245.589,8.694 246.309,8.247 247.201,8.046L251.557,7.065C251.943,6.985 252.263,6.788 252.516,6.475C252.769,6.161 252.896,5.797 252.896,5.383C252.896,4.915 252.729,4.515 252.396,4.182C252.063,3.848 251.657,3.681 251.178,3.681L243.709,3.681C243.323,3.681 243.13,3.874 243.13,4.261L243.13,14.345C243.13,14.745 242.987,15.089 242.7,15.375C242.413,15.662 242.07,15.806 241.669,15.806C241.269,15.806 240.925,15.662 240.639,15.375C240.352,15.089 240.208,14.745 240.208,14.345L240.208,4.257C240.208,3.296 240.555,2.476 241.249,1.795C241.928,1.115 242.748,0.774 243.708,0.774Z" style="fill:white;fill-rule:nonzero;"/>
        </g>
        <g transform="matrix(4.166667,0,0,4.166667,0,-1.991653)">
            <path d="M260.93,10.935C260.93,11.401 261.096,11.801 261.428,12.134C261.762,12.467 262.168,12.634 262.647,12.634L268.978,12.634C269.457,12.634 269.863,12.467 270.196,12.134C270.529,11.801 270.695,11.401 270.695,10.935L270.695,5.395C270.695,4.93 270.529,4.529 270.196,4.196C269.863,3.863 269.457,3.696 268.978,3.696L262.647,3.696C262.168,3.696 261.762,3.863 261.428,4.196C261.096,4.529 260.93,4.93 260.93,5.395L260.93,10.935ZM258.008,5.394C258.008,4.128 258.461,3.041 259.367,2.135C260.273,1.228 261.366,0.774 262.646,0.774L268.983,0.774C270.263,0.774 271.353,1.231 272.252,2.144C273.151,3.058 273.602,4.142 273.602,5.394L273.602,10.936C273.602,12.202 273.148,13.289 272.242,14.195C271.336,15.103 270.25,15.556 268.983,15.556L262.646,15.556C261.366,15.556 260.273,15.103 259.367,14.195C258.461,13.289 258.008,12.202 258.008,10.936L258.008,5.394Z" style="fill:white;fill-rule:nonzero;"/>
        </g>
        <g transform="matrix(4.166667,0,0,4.166667,0,-1.991653)">
            <path d="M286.807,12.649C287.287,12.649 287.693,12.483 288.026,12.15C288.359,11.817 288.526,11.41 288.526,10.931C288.526,10.451 288.359,10.045 288.026,9.712C287.693,9.379 287.287,9.212 286.807,9.212L278.729,9.212L278.729,12.07C278.729,12.456 278.923,12.649 279.31,12.649L286.807,12.649ZM279.309,3.696C278.923,3.696 278.729,3.889 278.729,4.275L278.729,6.29L286.805,6.29C287.165,6.29 287.472,6.164 287.725,5.911C287.978,5.658 288.104,5.353 288.104,4.993C288.104,4.634 287.978,4.328 287.725,4.075C287.472,3.823 287.165,3.696 286.805,3.696L279.309,3.696ZM290.088,7.653C290.994,8.56 291.448,9.652 291.448,10.933C291.448,12.212 290.995,13.305 290.088,14.212C289.182,15.118 288.088,15.571 286.809,15.571L279.308,15.571C278.334,15.571 277.508,15.231 276.828,14.552C276.147,13.872 275.808,13.045 275.808,12.072L275.808,4.273C275.808,3.301 276.147,2.474 276.827,1.794C277.508,1.114 278.334,0.774 279.308,0.774L286.807,0.774C287.967,0.774 288.96,1.187 289.786,2.014C290.613,2.841 291.026,3.834 291.026,4.993C291.026,5.98 290.713,6.866 290.088,7.653Z" style="fill:white;fill-rule:nonzero;"/>
        </g>
        <g transform="matrix(4.166667,0,0,4.166667,0,-1.991653)">
            <path d="M296.47,10.935C296.47,11.401 296.636,11.801 296.969,12.134C297.302,12.467 297.708,12.634 298.188,12.634L304.518,12.634C304.997,12.634 305.403,12.467 305.736,12.134C306.068,11.801 306.235,11.401 306.235,10.935L306.235,5.395C306.235,4.93 306.068,4.529 305.736,4.196C305.403,3.863 304.997,3.696 304.518,3.696L298.188,3.696C297.708,3.696 297.302,3.863 296.969,4.196C296.636,4.529 296.47,4.93 296.47,5.395L296.47,10.935ZM293.548,5.394C293.548,4.128 294.001,3.041 294.907,2.135C295.813,1.228 296.906,0.774 298.186,0.774L304.523,0.774C305.803,0.774 306.893,1.231 307.792,2.144C308.691,3.058 309.142,4.142 309.142,5.394L309.142,10.936C309.142,12.202 308.688,13.289 307.782,14.195C306.876,15.103 305.789,15.556 304.523,15.556L298.186,15.556C296.906,15.556 295.813,15.103 294.907,14.195C294.001,13.289 293.548,12.202 293.548,10.936L293.548,5.394Z" style="fill:white;fill-rule:nonzero;"/>
        </g>
        <g transform="matrix(4.166667,0,0,4.166667,0,-1.991653)">
            <path d="M325.947,0.774C326.361,0.774 326.711,0.917 326.998,1.203C327.284,1.489 327.428,1.839 327.428,2.251C327.428,2.664 327.284,3.013 326.998,3.299C326.711,3.585 326.361,3.728 325.947,3.728L320.848,3.728L320.848,14.355C320.848,14.77 320.698,15.12 320.398,15.407C320.1,15.693 319.757,15.837 319.371,15.837C318.959,15.837 318.609,15.693 318.323,15.407C318.037,15.12 317.895,14.77 317.895,14.355L317.895,3.728L312.829,3.728C312.415,3.728 312.064,3.585 311.778,3.299C311.491,3.013 311.348,2.664 311.348,2.251C311.348,1.839 311.491,1.489 311.777,1.203C312.064,0.917 312.414,0.774 312.828,0.774L325.947,0.774Z" style="fill:white;fill-rule:nonzero;"/>
        </g>
        <g transform="matrix(4.166667,0,0,4.166667,0,-1.991653)">
            <path d="M328.983,1.988C328.983,1.589 329.127,1.242 329.414,0.949C329.701,0.655 330.052,0.509 330.466,0.509C330.879,0.509 331.233,0.655 331.527,0.949C331.82,1.242 331.968,1.589 331.968,1.988L331.968,14.326C331.968,14.726 331.82,15.072 331.527,15.366C331.233,15.659 330.879,15.806 330.466,15.806C330.052,15.806 329.701,15.655 329.414,15.355C329.127,15.056 328.983,14.713 328.983,14.326L328.983,1.988Z" style="fill:white;fill-rule:nonzero;"/>
        </g>
        <g transform="matrix(4.166667,0,0,4.166667,0,-1.991653)">
            <path d="M333.968,5.431C333.968,4.15 334.421,3.057 335.328,2.15C336.235,1.243 337.329,0.79 338.609,0.79L346.111,0.79C347.072,0.79 347.893,1.13 348.572,1.811C349.252,2.491 349.593,3.311 349.593,4.272C349.593,4.686 349.449,5.032 349.162,5.312C348.875,5.592 348.53,5.732 348.13,5.732C347.729,5.732 347.388,5.592 347.107,5.312C346.826,5.032 346.687,4.686 346.687,4.272C346.687,3.898 346.493,3.712 346.106,3.712L338.609,3.712C338.129,3.712 337.723,3.879 337.39,4.212C337.057,4.545 336.89,4.952 336.89,5.432L336.89,10.93C336.89,11.41 337.057,11.816 337.39,12.149C337.723,12.483 338.129,12.649 338.609,12.649L346.106,12.649C346.493,12.649 346.687,12.45 346.687,12.05C346.687,11.664 346.826,11.331 347.107,11.051C347.388,10.771 347.729,10.631 348.13,10.631C348.518,10.631 348.857,10.771 349.152,11.052C349.445,11.332 349.593,11.678 349.593,12.091C349.593,13.051 349.252,13.871 348.572,14.551C347.893,15.231 347.072,15.571 346.111,15.571L338.609,15.571C337.329,15.571 336.235,15.118 335.328,14.211C334.421,13.305 333.968,12.211 333.968,10.931L333.968,5.431Z" style="fill:white;fill-rule:nonzero;"/>
        </g>
        <g transform="matrix(4.166667,0,0,4.166667,0,-1.991653)">
            <path d="M365.879,0.774C366.279,0.774 366.615,0.911 366.889,1.184C367.162,1.456 367.299,1.792 367.299,2.19C367.299,2.576 367.162,2.905 366.889,3.178C366.615,3.451 366.278,3.587 365.879,3.587L355.536,3.587C355.282,3.587 355.063,3.681 354.876,3.867C354.689,4.054 354.596,4.274 354.596,4.527C354.596,5.008 354.844,5.321 355.34,5.468L364.486,8.13L364.344,8.11C365.195,8.284 365.9,8.724 366.46,9.431C367.02,10.139 367.299,10.926 367.299,11.793C367.299,12.834 366.932,13.721 366.199,14.455C365.466,15.188 364.579,15.556 363.54,15.556L353.203,15.556C352.816,15.556 352.482,15.419 352.203,15.146C351.923,14.874 351.783,14.538 351.783,14.14C351.783,13.754 351.927,13.425 352.213,13.152C352.5,12.88 352.83,12.743 353.203,12.743L363.546,12.743C363.8,12.743 364.02,12.65 364.206,12.463C364.393,12.276 364.486,12.056 364.486,11.803C364.486,11.322 364.238,11.009 363.742,10.862L354.596,8.2L354.743,8.22C353.89,8.047 353.184,7.606 352.623,6.899C352.063,6.192 351.783,5.404 351.783,4.537C351.783,3.51 352.153,2.626 352.893,1.885C353.633,1.144 354.516,0.774 355.542,0.774L365.879,0.774Z" style="fill:white;fill-rule:nonzero;"/>
        </g>
    </g>
    <g id="lakota-Robotics--Blue-" serif:id="lakota Robotics (Blue)" transform="matrix(1,0,0,1,-2.154175,0)">
        <g transform="matrix(4.166667,0,0,4.166667,0,-1.991653)">
            <path d="M129.418,0.929C129.711,1.223 129.856,1.576 129.856,1.99L129.856,10.856C129.856,11.351 130.028,11.768 130.369,12.108C130.709,12.448 131.126,12.618 131.621,12.618L139.256,12.618C139.657,12.618 139.857,12.416 139.857,12.01C139.857,11.605 140,11.258 140.287,10.967C140.572,10.677 140.921,10.531 141.334,10.531C141.747,10.531 142.095,10.675 142.381,10.961C142.667,11.248 142.811,11.598 142.811,12.011C142.811,12.998 142.463,13.838 141.77,14.531C141.077,15.225 140.243,15.571 139.269,15.571L131.626,15.571C130.319,15.571 129.205,15.111 128.285,14.191C127.364,13.271 126.904,12.157 126.904,10.851L126.904,1.989C126.904,1.576 127.047,1.226 127.333,0.939C127.619,0.652 127.968,0.509 128.381,0.509C128.793,0.509 129.139,0.649 129.418,0.929Z" style="fill:white;fill-rule:nonzero;"/>
        </g>
        <g transform="matrix(4.166667,0,0,4.166667,0,-1.991653)">
            <path d="M149.029,8.337L157.369,8.337L156.648,5.11C156.568,4.709 156.362,4.379 156.028,4.118C155.695,3.858 155.329,3.728 154.928,3.728L151.449,3.728C151.062,3.728 150.702,3.861 150.369,4.128C150.035,4.395 149.829,4.723 149.749,5.11L149.029,8.337ZM161.688,14.037L161.729,14.356C161.729,14.771 161.579,15.12 161.279,15.407C160.979,15.693 160.628,15.837 160.229,15.837C159.869,15.837 159.558,15.727 159.298,15.507C159.039,15.286 158.869,15.009 158.789,14.675L158.029,11.29L148.348,11.29L147.608,14.675C147.528,15.009 147.355,15.286 147.088,15.507C146.822,15.727 146.508,15.837 146.148,15.837C145.749,15.837 145.402,15.693 145.108,15.407C144.815,15.12 144.668,14.771 144.668,14.356L144.708,14.037L146.848,4.475C147.088,3.408 147.638,2.525 148.499,1.825C149.358,1.124 150.342,0.774 151.449,0.774L154.928,0.774C156.048,0.774 157.039,1.124 157.898,1.825C158.758,2.525 159.308,3.401 159.548,4.455L161.688,14.037Z" style="fill:white;fill-rule:nonzero;"/>
        </g>
        <g transform="matrix(4.166667,0,0,4.166667,0,-1.991653)">
            <path d="M165.473,5.878L172.331,5.878C172.73,5.878 173.093,5.754 173.42,5.508C173.747,5.261 173.963,4.924 174.07,4.498L174.73,1.618C174.81,1.271 174.983,0.994 175.25,0.788C175.516,0.581 175.83,0.478 176.189,0.478C176.589,0.478 176.936,0.624 177.229,0.918C177.522,1.212 177.668,1.565 177.668,1.979L177.628,2.319L176.989,5.162C176.842,5.79 176.582,6.363 176.208,6.884C176.662,7.231 177.032,7.635 177.319,8.095C177.605,8.556 177.815,9.066 177.949,9.626L178.969,14.031L179.009,14.371C179.009,14.785 178.859,15.135 178.559,15.422C178.259,15.709 177.909,15.853 177.509,15.853C177.149,15.853 176.836,15.742 176.57,15.522C176.303,15.303 176.129,15.033 176.05,14.713L175.03,10.272C174.977,10.046 174.903,9.856 174.81,9.703C174.717,9.549 174.583,9.406 174.41,9.272C174.077,9.019 173.71,8.893 173.311,8.893L165.473,8.893L165.473,14.373C165.473,14.786 165.33,15.136 165.042,15.423C164.755,15.709 164.405,15.853 163.991,15.853C163.577,15.853 163.223,15.706 162.929,15.412C162.635,15.119 162.489,14.765 162.489,14.351L162.489,1.979C162.489,1.565 162.635,1.212 162.929,0.918C163.223,0.624 163.577,0.478 163.991,0.478C164.405,0.478 164.755,0.628 165.042,0.928C165.33,1.228 165.473,1.578 165.473,1.978L165.473,5.878Z" style="fill:white;fill-rule:nonzero;"/>
        </g>
        <g transform="matrix(4.166667,0,0,4.166667,0,-1.991653)">
            <path d="M183.23,10.935C183.23,11.401 183.397,11.801 183.73,12.134C184.063,12.467 184.468,12.634 184.948,12.634L191.279,12.634C191.758,12.634 192.164,12.467 192.497,12.134C192.83,11.801 192.996,11.401 192.996,10.935L192.996,5.395C192.996,4.93 192.83,4.529 192.497,4.196C192.164,3.863 191.758,3.696 191.279,3.696L184.948,3.696C184.468,3.696 184.063,3.863 183.73,4.196C183.397,4.529 183.23,4.93 183.23,5.395L183.23,10.935ZM180.309,5.394C180.309,4.128 180.762,3.041 181.668,2.135C182.574,1.228 183.667,0.774 184.947,0.774L191.284,0.774C192.563,0.774 193.653,1.231 194.553,2.144C195.453,3.058 195.902,4.142 195.902,5.394L195.902,10.936C195.902,12.202 195.449,13.289 194.542,14.195C193.636,15.103 192.55,15.556 191.284,15.556L184.947,15.556C183.667,15.556 182.574,15.103 181.668,14.195C180.762,13.289 180.309,12.202 180.309,10.936L180.309,5.394Z" style="fill:white;fill-rule:nonzero;"/>
        </g>
        <g transform="matrix(4.166667,0,0,4.166667,0,-1.991653)">
            <path d="M212.708,0.774C213.122,0.774 213.471,0.917 213.758,1.203C214.045,1.489 214.188,1.839 214.188,2.251C214.188,2.664 214.045,3.013 213.758,3.299C213.471,3.585 213.122,3.728 212.708,3.728L207.608,3.728L207.608,14.355C207.608,14.77 207.458,15.12 207.16,15.407C206.86,15.693 206.518,15.837 206.131,15.837C205.719,15.837 205.37,15.693 205.084,15.407C204.798,15.12 204.655,14.77 204.655,14.355L204.655,3.728L199.59,3.728C199.176,3.728 198.826,3.585 198.539,3.299C198.251,3.013 198.108,2.664 198.108,2.251C198.108,1.839 198.251,1.489 198.539,1.203C198.825,0.917 199.175,0.774 199.588,0.774L212.708,0.774Z" style="fill:white;fill-rule:nonzero;"/>
        </g>
        <g transform="matrix(4.166667,0,0,4.166667,0,-1.991653)">
            <path d="M220.068,8.337L228.408,8.337L227.688,5.11C227.608,4.709 227.401,4.379 227.068,4.118C226.735,3.858 226.368,3.728 225.968,3.728L222.488,3.728C222.101,3.728 221.741,3.861 221.408,4.128C221.075,4.395 220.868,4.723 220.788,5.11L220.068,8.337ZM232.728,14.037L232.768,14.356C232.768,14.771 232.618,15.12 232.318,15.407C232.018,15.693 231.668,15.837 231.268,15.837C230.908,15.837 230.598,15.727 230.338,15.507C230.078,15.286 229.908,15.009 229.829,14.675L229.068,11.29L219.388,11.29L218.648,14.675C218.568,15.009 218.395,15.286 218.127,15.507C217.862,15.727 217.547,15.837 217.188,15.837C216.788,15.837 216.441,15.693 216.148,15.407C215.854,15.12 215.708,14.771 215.708,14.356L215.749,14.037L217.888,4.475C218.127,3.408 218.678,2.525 219.538,1.825C220.398,1.124 221.381,0.774 222.488,0.774L225.968,0.774C227.088,0.774 228.078,1.124 228.938,1.825C229.797,2.525 230.348,3.401 230.588,4.455L232.728,14.037Z" style="fill:white;fill-rule:nonzero;"/>
        </g>
        <g transform="matrix(4.166667,0,0,4.166667,0,-1.991653)">
            <path d="M243.708,0.774L251.184,0.774C252.463,0.774 253.553,1.231 254.452,2.144C255.352,3.058 255.802,4.141 255.802,5.394C255.802,6.461 255.465,7.421 254.793,8.274C254.12,9.127 253.251,9.674 252.186,9.914L247.829,10.894C247.363,11.001 247.13,11.287 247.13,11.754C247.13,12.007 247.22,12.217 247.399,12.384C247.58,12.551 247.789,12.634 248.029,12.634L253.849,12.634C254.248,12.634 254.588,12.777 254.868,13.064C255.148,13.351 255.288,13.694 255.288,14.095C255.288,14.481 255.148,14.822 254.868,15.115C254.588,15.409 254.248,15.556 253.848,15.556L248.025,15.556C246.972,15.556 246.075,15.186 245.334,14.444C244.594,13.703 244.224,12.806 244.224,11.751C244.224,10.87 244.497,10.082 245.043,9.388C245.589,8.694 246.309,8.247 247.201,8.046L251.557,7.065C251.943,6.985 252.263,6.788 252.516,6.475C252.769,6.161 252.896,5.797 252.896,5.383C252.896,4.915 252.729,4.515 252.396,4.182C252.063,3.848 251.657,3.681 251.178,3.681L243.709,3.681C243.323,3.681 243.13,3.874 243.13,4.261L243.13,14.345C243.13,14.745 242.987,15.089 242.7,15.375C242.413,15.662 242.07,15.806 241.669,15.806C241.269,15.806 240.925,15.662 240.639,15.375C240.352,15.089 240.208,14.745 240.208,14.345L240.208,4.257C240.208,3.296 240.555,2.476 241.249,1.795C241.928,1.115 242.748,0.774 243.708,0.774Z" style="fill:white;fill-rule:nonzero;"/>
        </g>
        <g transform="matrix(4.166667,0,0,4.166667,0,-1.991653)">
            <path d="M260.93,10.935C260.93,11.401 261.096,11.801 261.428,12.134C261.762,12.467 262.168,12.634 262.647,12.634L268.978,12.634C269.457,12.634 269.863,12.467 270.196,12.134C270.529,11.801 270.695,11.401 270.695,10.935L270.695,5.395C270.695,4.93 270.529,4.529 270.196,4.196C269.863,3.863 269.457,3.696 268.978,3.696L262.647,3.696C262.168,3.696 261.762,3.863 261.428,4.196C261.096,4.529 260.93,4.93 260.93,5.395L260.93,10.935ZM258.008,5.394C258.008,4.128 258.461,3.041 259.367,2.135C260.273,1.228 261.366,0.774 262.646,0.774L268.983,0.774C270.263,0.774 271.353,1.231 272.252,2.144C273.151,3.058 273.602,4.142 273.602,5.394L273.602,10.936C273.602,12.202 273.148,13.289 272.242,14.195C271.336,15.103 270.25,15.556 268.983,15.556L262.646,15.556C261.366,15.556 260.273,15.103 259.367,14.195C258.461,13.289 258.008,12.202 258.008,10.936L258.008,5.394Z" style="fill:white;fill-rule:nonzero;"/>
        </g>
        <g transform="matrix(4.166667,0,0,4.166667,0,-1.991653)">
            <path d="M286.807,12.649C287.287,12.649 287.693,12.483 288.026,12.15C288.359,11.817 288.526,11.41 288.526,10.931C288.526,10.451 288.359,10.045 288.026,9.712C287.693,9.379 287.287,9.212 286.807,9.212L278.729,9.212L278.729,12.07C278.729,12.456 278.923,12.649 279.31,12.649L286.807,12.649ZM279.309,3.696C278.923,3.696 278.729,3.889 278.729,4.275L278.729,6.29L286.805,6.29C287.165,6.29 287.472,6.164 287.725,5.911C287.978,5.658 288.104,5.353 288.104,4.993C288.104,4.634 287.978,4.328 287.725,4.075C287.472,3.823 287.165,3.696 286.805,3.696L279.309,3.696ZM290.088,7.653C290.994,8.56 291.448,9.652 291.448,10.933C291.448,12.212 290.995,13.305 290.088,14.212C289.182,15.118 288.088,15.571 286.809,15.571L279.308,15.571C278.334,15.571 277.508,15.231 276.828,14.552C276.147,13.872 275.808,13.045 275.808,12.072L275.808,4.273C275.808,3.301 276.147,2.474 276.827,1.794C277.508,1.114 278.334,0.774 279.308,0.774L286.807,0.774C287.967,0.774 288.96,1.187 289.786,2.014C290.613,2.841 291.026,3.834 291.026,4.993C291.026,5.98 290.713,6.866 290.088,7.653Z" style="fill:white;fill-rule:nonzero;"/>
        </g>
        <g transform="matrix(4.166667,0,0,4.166667,0,-1.991653)">
            <path d="M296.47,10.935C296.47,11.401 296.636,11.801 296.969,12.134C297.302,12.467 297.708,12.634 298.188,12.634L304.518,12.634C304.997,12.634 305.403,12.467 305.736,12.134C306.068,11.801 306.235,11.401 306.235,10.935L306.235,5.395C306.235,4.93 306.068,4.529 305.736,4.196C305.403,3.863 304.997,3.696 304.518,3.696L298.188,3.696C297.708,3.696 297.302,3.863 296.969,4.196C296.636,4.529 296.47,4.93 296.47,5.395L296.47,10.935ZM293.548,5.394C293.548,4.128 294.001,3.041 294.907,2.135C295.813,1.228 296.906,0.774 298.186,0.774L304.523,0.774C305.803,0.774 306.893,1.231 307.792,2.144C308.691,3.058 309.142,4.142 309.142,5.394L309.142,10.936C309.142,12.202 308.688,13.289 307.782,14.195C306.876,15.103 305.789,15.556 304.523,15.556L298.186,15.556C296.906,15.556 295.813,15.103 294.907,14.195C294.001,13.289 293.548,12.202 293.548,10.936L293.548,5.394Z" style="fill:white;fill-rule:nonzero;"/>
        </g>
        <g transform="matrix(4.166667,0,0,4.166667,0,-1.991653)">
            <path d="M325.947,0.774C326.361,0.774 326.711,0.917 326.998,1.203C327.284,1.489 327.428,1.839 327.428,2.251C327.428,2.664 327.284,3.013 326.998,3.299C326.711,3.585 326.361,3.728 325.947,3.728L320.848,3.728L320.848,14.355C320.848,14.77 320.698,15.12 320.398,15.407C320.1,15.693 319.757,15.837 319.371,15.837C318.959,15.837 318.609,15.693 318.323,15.407C318.037,15.12 317.895,14.77 317.895,14.355L317.895,3.728L312.829,3.728C312.415,3.728 312.064,3.585 311.778,3.299C311.491,3.013 311.348,2.664 311.348,2.251C311.348,1.839 311.491,1.489 311.777,1.203C312.064,0.917 312.414,0.774 312.828,0.774L325.947,0.774Z" style="fill:white;fill-rule:nonzero;"/>
        </g>
        <g transform="matrix(4.166667,0,0,4.166667,0,-1.991653)">
            <path d="M328.983,1.988C328.983,1.589 329.127,1.242 329.414,0.949C329.701,0.655 330.052,0.509 330.466,0.509C330.879,0.509 331.233,0.655 331.527,0.949C331.82,1.242 331.968,1.589 331.968,1.988L331.968,14.326C331.968,14.726 331.82,15.072 331.527,15.366C331.233,15.659 330.879,15.806 330.466,15.806C330.052,15.806 329.701,15.655 329.414,15.355C329.127,15.056 328.983,14.713 328.983,14.326L328.983,1.988Z" style="fill:white;fill-rule:nonzero;"/>
        </g>
        <g transform="matrix(4.166667,0,0,4.166667,0,-1.991653)">
            <path d="M333.968,5.431C333.968,4.15 334.421,3.057 335.328,2.15C336.235,1.243 337.329,0.79 338.609,0.79L346.111,0.79C347.072,0.79 347.893,1.13 348.572,1.811C349.252,2.491 349.593,3.311 349.593,4.272C349.593,4.686 349.449,5.032 349.162,5.312C348.875,5.592 348.53,5.732 348.13,5.732C347.729,5.732 347.388,5.592 347.107,5.312C346.826,5.032 346.687,4.686 346.687,4.272C346.687,3.898 346.493,3.712 346.106,3.712L338.609,3.712C338.129,3.712 337.723,3.879 337.39,4.212C337.057,4.545 336.89,4.952 336.89,5.432L336.89,10.93C336.89,11.41 337.057,11.816 337.39,12.149C337.723,12.483 338.129,12.649 338.609,12.649L346.106,12.649C346.493,12.649 346.687,12.45 346.687,12.05C346.687,11.664 346.826,11.331 347.107,11.051C347.388,10.771 347.729,10.631 348.13,10.631C348.518,10.631 348.857,10.771 349.152,11.052C349.445,11.332 349.593,11.678 349.593,12.091C349.593,13.051 349.252,13.871 348.572,14.551C347.893,15.231 347.072,15.571 346.111,15.571L338.609,15.571C337.329,15.571 336.235,15.118 335.328,14.211C334.421,13.305 333.968,12.211 333.968,10.931L333.968,5.431Z" style="fill:white;fill-rule:nonzero;"/>
        </g>
        <g transform="matrix(4.166667,0,0,4.166667,0,-1.991653)">
            <path d="M365.879,0.774C366.279,0.774 366.615,0.911 366.889,1.184C367.162,1.456 367.299,1.792 367.299,2.19C367.299,2.576 367.162,2.905 366.889,3.178C366.615,3.451 366.278,3.587 365.879,3.587L355.536,3.587C355.282,3.587 355.063,3.681 354.876,3.867C354.689,4.054 354.596,4.274 354.596,4.527C354.596,5.008 354.844,5.321 355.34,5.468L364.486,8.13L364.344,8.11C365.195,8.284 365.9,8.724 366.46,9.431C367.02,10.139 367.299,10.926 367.299,11.793C367.299,12.834 366.932,13.721 366.199,14.455C365.466,15.188 364.579,15.556 363.54,15.556L353.203,15.556C352.816,15.556 352.482,15.419 352.203,15.146C351.923,14.874 351.783,14.538 351.783,14.14C351.783,13.754 351.927,13.425 352.213,13.152C352.5,12.88 352.83,12.743 353.203,12.743L363.546,12.743C363.8,12.743 364.02,12.65 364.206,12.463C364.393,12.276 364.486,12.056 364.486,11.803C364.486,11.322 364.238,11.009 363.742,10.862L354.596,8.2L354.743,8.22C353.89,8.047 353.184,7.606 352.623,6.899C352.063,6.192 351.783,5.404 351.783,4.537C351.783,3.51 352.153,2.626 352.893,1.885C353.633,1.144 354.516,0.774 355.542,0.774L365.879,0.774Z" style="fill:white;fill-rule:nonzero;"/>
        </g>
    </g>
    <g transform="matrix(1.390945,0,0,1.390945,-215.005119,-101.433145)">
        <g transform="matrix(248.339973,0,0,248.339973,1242.067729,358)">
        </g>
        <text x="579px" y="358px" style="font-family:'Racer';font-size:248.34px;fill:white;">FLL</text>
    </g>
</svg>
