<?xml version="1.0" encoding="UTF-8" standalone="no"?>
<!-- Created with Inkscape (http://www.inkscape.org/) -->

<svg
   width="3in"
   height="1in"
   viewBox="0 0 76.200001 25.400001"
   version="1.1"
   id="svg1072"
   inkscape:version="1.1.2 (b8e25be833, 2022-02-05)"
   sodipodi:docname="PGSC_Logog.svg"
   xmlns:inkscape="http://www.inkscape.org/namespaces/inkscape"
   xmlns:sodipodi="http://sodipodi.sourceforge.net/DTD/sodipodi-0.dtd"
   xmlns="http://www.w3.org/2000/svg"
   xmlns:svg="http://www.w3.org/2000/svg">
  <sodipodi:namedview
     id="namedview1074"
     pagecolor="#ffffff"
     bordercolor="#666666"
     borderopacity="1.0"
     inkscape:pageshadow="2"
     inkscape:pageopacity="0.0"
     inkscape:pagecheckerboard="true"
     inkscape:document-units="in"
     showgrid="false"
     units="in"
     inkscape:zoom="1.2875732"
     inkscape:cx="52.035877"
     inkscape:cy="174.74735"
     inkscape:window-width="1366"
     inkscape:window-height="697"
     inkscape:window-x="-8"
     inkscape:window-y="-8"
     inkscape:window-maximized="1"
     inkscape:current-layer="layer1" />
  <defs
     id="defs1069" />
  <g
     inkscape:label="Layer 1"
     inkscape:groupmode="layer"
     id="layer1">
    <g
       id="g1797"
       style="fill:white;stroke:none;stroke-width:1.20351"
       transform="matrix(0.83090216,0,0,0.83090216,6.4100785,-7.247973)">
      <g
         transform="matrix(0.04271101,0,0,0.02144785,-7.0696417,19.659376)"
         id="g102085"
         style="clip-rule:evenodd;fill:white;fill-opacity:1;fill-rule:evenodd;stroke:none;stroke-width:3.16118;stroke-miterlimit:2">
        <path
           id="rect102083"
           d="M 326.55701,256.55399 H 2079.927 v 59.33499 H 326.55701 Z"
           style="fill:white;stroke:none;stroke-width:3.16118" />
      </g>
      <g
         transform="matrix(0,0.010875,-0.02245198,0,10.804543,12.104088)"
         id="g102089"
         style="clip-rule:evenodd;fill:white;fill-opacity:1;fill-rule:evenodd;stroke:none;stroke-width:3.16118;stroke-miterlimit:2">
        <path
           id="rect102087"
           d="M 309.29199,257.004 H 2097.192 v 58.434 H 309.29199 Z"
           style="fill:white;stroke:none;stroke-width:3.16118" />
      </g>
      <g
         transform="matrix(0,0.010875,-0.02245198,0,5.565191,12.104088)"
         id="g102093"
         style="clip-rule:evenodd;fill:white;fill-opacity:1;fill-rule:evenodd;stroke:none;stroke-width:3.16118;stroke-miterlimit:2">
        <path
           id="rect102091"
           d="M 309.29199,257.004 H 2097.192 v 58.434 H 309.29199 Z"
           style="fill:white;stroke:none;stroke-width:3.16118" />
      </g>
      <g
         transform="matrix(0.10389656,0,0,0.10365585,-7.7842781,14.3734)"
         id="g102097"
         style="clip-rule:evenodd;fill:white;fill-opacity:1;fill-rule:evenodd;stroke:none;stroke-width:3.16118;stroke-miterlimit:2">
        <path
           d="M 35.118,116.523 H 18.712 V 103.915 H 35.118 V 58.659 H 47.726 V 164.021 H 35.118 Z"
           style="fill:white;fill-opacity:1;stroke:none;stroke-width:3.16118"
           id="path102095" />
      </g>
      <g
         transform="matrix(0,0.00598297,-0.02245198,0,8.1849178,18.715412)"
         id="g102101"
         style="clip-rule:evenodd;fill:white;fill-opacity:1;fill-rule:evenodd;stroke:none;stroke-width:3.16118;stroke-miterlimit:2">
        <path
           id="rect102099"
           d="M 290.53799,257.05099 H 2115.948 v 58.342 H 290.53799 Z"
           style="fill:white;stroke:none;stroke-width:3.16118" />
      </g>
      <g
         transform="matrix(0.05083199,0,0,0.05013589,-15.904788,9.7062891)"
         id="g102145"
         style="clip-rule:evenodd;fill:white;fill-opacity:1;fill-rule:evenodd;stroke:none;stroke-width:3.16118;stroke-miterlimit:2">
        <g
           id="g102143"
           style="fill:white;fill-opacity:1;stroke:none;stroke-width:3.16118">
          <g
             transform="matrix(0.222946,0,0,0.211285,348.625,-280.962)"
             id="g102105"
             style="fill:white;fill-opacity:1;stroke:none;stroke-width:3.16118">
            <path
               d="m 468.794,2576.9 v -667.63 h 251.839 c 44.326,0 78.178,2.13 101.555,6.38 32.789,5.46 60.266,15.86 82.429,31.2 22.163,15.33 39.999,36.81 53.51,64.44 13.51,27.62 20.265,57.98 20.265,91.08 0,56.77 -18.064,104.81 -54.193,144.13 -36.129,39.32 -101.404,58.98 -195.824,58.98 H 557.142 v 271.42 z m 88.348,-350.21 h 172.599 c 57.077,0 97.608,-10.62 121.593,-31.88 23.985,-21.25 35.977,-51.15 35.977,-89.71 0,-27.93 -7.059,-51.84 -21.176,-71.73 -14.118,-19.88 -32.713,-33.01 -55.787,-39.39 -14.877,-3.95 -42.353,-5.92 -82.429,-5.92 H 557.142 Z"
               style="fill:white;fill-opacity:1;stroke:none;stroke-width:144.687px"
               id="path102103" />
          </g>
          <g
             transform="matrix(0.222946,0,0,0.211285,348.625,-280.962)"
             id="g102109"
             style="fill:white;fill-opacity:1;stroke:none;stroke-width:3.16118">
            <path
               d="m 948.336,2576.9 256.394,-667.63 h 95.18 l 273.24,667.63 h -100.64 l -77.88,-202.2 h -279.16 l -73.32,202.2 z m 192.634,-274.16 h 226.34 l -69.68,-184.89 c -21.25,-56.17 -37.04,-102.31 -47.36,-138.44 -8.5,42.8 -20.49,85.31 -35.98,127.51 z"
               style="fill:white;fill-opacity:1;stroke:none;stroke-width:144.687px"
               id="path102107" />
          </g>
          <g
             transform="matrix(0.222946,0,0,0.211285,348.625,-280.962)"
             id="g102113"
             style="fill:white;fill-opacity:1;stroke:none;stroke-width:3.16118">
            <path
               d="m 2081.84,1909.27 h 88.35 V 2295 c 0,67.1 -7.59,120.38 -22.77,159.85 -15.18,39.47 -42.58,71.57 -82.2,96.32 -39.62,24.74 -91.61,37.11 -155.98,37.11 -62.54,0 -113.7,-10.77 -153.47,-32.33 -39.77,-21.56 -68.16,-52.75 -85.16,-93.59 -17,-40.83 -25.5,-96.62 -25.5,-167.36 v -385.73 h 88.34 v 385.28 c 0,57.98 5.39,100.72 16.17,128.19 10.78,27.48 29.3,48.66 55.56,63.53 26.26,14.88 58.37,22.32 96.32,22.32 64.97,0 111.27,-14.73 138.9,-44.18 27.63,-29.45 41.44,-86.07 41.44,-169.86 z"
               style="fill:white;fill-opacity:1;stroke:none;stroke-width:144.687px"
               id="path102111" />
          </g>
          <g
             transform="matrix(0.222946,0,0,0.211285,348.625,-280.962)"
             id="g102117"
             style="fill:white;fill-opacity:1;stroke:none;stroke-width:3.16118">
            <path
               d="m 2313.64,2576.9 v -667.63 h 88.35 v 588.84 h 328.8 v 78.79 z"
               style="fill:white;fill-opacity:1;stroke:none;stroke-width:144.687px"
               id="path102115" />
          </g>
          <g
             transform="matrix(0.222946,0,0,0.211285,348.625,-280.962)"
             id="g102121"
             style="fill:white;fill-opacity:1;stroke:none;stroke-width:3.16118">
            <path
               d="m 3372.91,2315.04 v -78.33 l 282.81,-0.45 V 2484 c -43.41,34.61 -88.2,60.64 -134.34,78.1 -46.15,17.45 -93.51,26.18 -142.09,26.18 -65.58,0 -125.16,-14.04 -178.75,-42.12 -53.58,-28.08 -94.04,-68.69 -121.36,-121.82 -27.33,-53.13 -40.99,-112.49 -40.99,-178.07 0,-64.97 13.59,-125.61 40.76,-181.93 27.17,-56.32 66.26,-98.14 117.27,-125.46 51,-27.33 109.75,-40.99 176.24,-40.99 48.27,0 91.92,7.82 130.93,23.45 39.01,15.64 69.6,37.42 91.76,65.35 22.17,27.93 39.01,64.37 50.55,109.3 l -79.69,21.86 c -10.02,-34 -22.47,-60.72 -37.35,-80.15 -14.87,-19.43 -36.13,-34.99 -63.75,-46.68 -27.63,-11.69 -58.29,-17.53 -92,-17.53 -40.38,0 -75.29,6.14 -104.74,18.44 -29.45,12.3 -53.2,28.46 -71.27,48.5 -18.06,20.04 -32.11,42.05 -42.12,66.03 -17.01,41.29 -25.51,86.08 -25.51,134.35 0,59.51 10.25,109.3 30.74,149.37 20.5,40.08 50.33,69.83 89.49,89.26 39.16,19.43 80.76,29.15 124.78,29.15 38.25,0 75.6,-7.37 112.03,-22.09 36.43,-14.72 64.06,-30.44 82.88,-47.13 v -124.33 z"
               style="fill:white;fill-opacity:1;stroke:none;stroke-width:144.687px"
               id="path102119" />
          </g>
          <g
             transform="matrix(0.222946,0,0,0.211285,348.625,-280.962)"
             id="g102125"
             style="fill:white;fill-opacity:1;stroke:none;stroke-width:3.16118">
            <path
               d="m 3787.79,2576.9 v -667.63 h 482.73 v 78.79 h -394.38 v 204.48 h 369.33 v 78.33 h -369.33 v 227.24 H 4286 v 78.79 z"
               style="fill:white;fill-opacity:1;stroke:none;stroke-width:144.687px"
               id="path102123" />
          </g>
          <g
             transform="matrix(0.222946,0,0,0.211285,348.625,-280.962)"
             id="g102129"
             style="fill:white;fill-opacity:1;stroke:none;stroke-width:3.16118">
            <path
               d="m 4381.18,2251.74 c 0,-110.82 29.76,-197.57 89.26,-260.27 59.51,-62.69 136.32,-94.04 230.44,-94.04 61.63,0 117.19,14.73 166.68,44.18 49.48,29.45 87.21,70.51 113.16,123.19 25.96,52.67 38.94,112.4 38.94,179.2 0,67.7 -13.66,128.27 -40.99,181.7 -27.32,53.44 -66.03,93.89 -116.12,121.37 -50.1,27.48 -104.14,41.21 -162.13,41.21 -62.84,0 -119.01,-15.18 -168.5,-45.54 -49.49,-30.36 -86.98,-71.8 -112.48,-124.32 -25.51,-52.53 -38.26,-108.09 -38.26,-166.68 z m 91.08,1.37 c 0,80.45 21.64,143.83 64.9,190.13 43.26,46.3 97.53,69.45 162.81,69.45 66.48,0 121.21,-23.38 164.17,-70.14 42.96,-46.75 64.44,-113.09 64.44,-199.01 0,-54.34 -9.18,-101.78 -27.55,-142.31 -18.37,-40.53 -45.24,-71.96 -80.61,-94.27 -35.37,-22.32 -75.06,-33.47 -119.09,-33.47 -62.54,0 -116.35,21.48 -161.44,64.44 -45.08,42.96 -67.63,114.68 -67.63,215.18 z"
               style="fill:white;fill-opacity:1;stroke:none;stroke-width:144.687px"
               id="path102127" />
          </g>
          <g
             transform="matrix(0.222946,0,0,0.211285,348.625,-280.962)"
             id="g102133"
             style="fill:white;fill-opacity:1;stroke:none;stroke-width:3.16118">
            <path
               d="m 5134.88,2576.9 v -667.63 h 296.01 c 59.51,0 104.75,6 135.71,17.99 30.97,12 55.71,33.17 74.23,63.53 18.52,30.36 27.78,63.91 27.78,100.65 0,47.36 -15.33,87.28 -45.99,119.77 -30.67,32.48 -78.03,53.13 -142.09,61.93 23.38,11.24 41.14,22.32 53.28,33.25 25.81,23.68 50.25,53.28 73.32,88.8 l 116.13,181.71 H 5612.14 L 5523.8,2438 c -25.81,-40.08 -47.06,-70.74 -63.76,-91.99 -16.7,-21.25 -31.65,-36.13 -44.86,-44.63 -13.21,-8.5 -26.64,-14.42 -40.3,-17.76 -10.02,-2.13 -26.42,-3.19 -49.19,-3.19 h -102.46 v 296.47 z m 88.35,-372.98 h 189.9 c 40.38,0 71.96,-4.17 94.73,-12.52 22.77,-8.35 40.07,-21.71 51.91,-40.08 11.84,-18.37 17.76,-38.33 17.76,-59.88 0,-31.58 -11.46,-57.54 -34.38,-77.88 -22.92,-20.34 -59.13,-30.51 -108.62,-30.51 h -211.3 z"
               style="fill:white;fill-opacity:1;stroke:none;stroke-width:144.687px"
               id="path102131" />
          </g>
          <g
             transform="matrix(0.222946,0,0,0.211285,348.625,-280.962)"
             id="g102137"
             style="fill:white;fill-opacity:1;stroke:none;stroke-width:3.16118">
            <path
               d="m 6119.47,2315.04 v -78.33 l 282.8,-0.45 V 2484 c -43.41,34.61 -88.2,60.64 -134.34,78.1 -46.15,17.45 -93.51,26.18 -142.09,26.18 -65.58,0 -125.16,-14.04 -178.75,-42.12 -53.58,-28.08 -94.04,-68.69 -121.36,-121.82 -27.33,-53.13 -40.99,-112.49 -40.99,-178.07 0,-64.97 13.59,-125.61 40.76,-181.93 27.17,-56.32 66.26,-98.14 117.27,-125.46 51,-27.33 109.75,-40.99 176.24,-40.99 48.27,0 91.92,7.82 130.93,23.45 39.01,15.64 69.6,37.42 91.76,65.35 22.17,27.93 39.02,64.37 50.55,109.3 l -79.69,21.86 c -10.02,-34 -22.47,-60.72 -37.35,-80.15 -14.87,-19.43 -36.12,-34.99 -63.75,-46.68 -27.63,-11.69 -58.3,-17.53 -91.99,-17.53 -40.38,0 -75.3,6.14 -104.75,18.44 -29.45,12.3 -53.2,28.46 -71.27,48.5 -18.06,20.04 -32.1,42.05 -42.12,66.03 -17.01,41.29 -25.51,86.08 -25.51,134.35 0,59.51 10.25,109.3 30.74,149.37 20.5,40.08 50.33,69.83 89.49,89.26 39.17,19.43 80.76,29.15 124.78,29.15 38.26,0 75.6,-7.37 112.03,-22.09 36.43,-14.72 64.06,-30.44 82.88,-47.13 v -124.33 z"
               style="fill:white;fill-opacity:1;stroke:none;stroke-width:144.687px"
               id="path102135" />
          </g>
          <g
             transform="matrix(0.222946,0,0,0.211285,348.625,-280.962)"
             id="g102141"
             style="fill:white;fill-opacity:1;stroke:none;stroke-width:3.16118">
            <path
               d="m 6534.34,2576.9 v -667.63 h 482.73 v 78.79 h -394.38 v 204.48 h 369.33 v 78.33 h -369.33 v 227.24 h 409.86 v 78.79 z"
               style="fill:white;fill-opacity:1;stroke:none;stroke-width:144.687px"
               id="path102139" />
          </g>
        </g>
      </g>
      <g
         transform="matrix(0.01136051,0,0,0.01059296,2.2972518,-2.6575344)"
         id="g102149"
         style="clip-rule:evenodd;fill:white;fill-opacity:1;fill-rule:evenodd;stroke:none;stroke-width:3.16118;stroke-miterlimit:2">
        <path
           d="m 425.332,3328.18 172.964,-10.83 c 3.746,28.09 11.37,49.49 22.875,64.21 18.727,23.81 45.481,35.71 80.261,35.71 25.951,0 45.95,-6.08 59.996,-18.26 14.045,-12.17 21.068,-26.28 21.068,-42.33 0,-15.25 -6.688,-28.9 -20.065,-40.94 -13.377,-12.04 -44.411,-23.41 -93.103,-34.11 -79.727,-17.92 -136.579,-41.73 -170.556,-71.43 -34.245,-29.7 -51.368,-67.56 -51.368,-113.57 0,-30.23 8.762,-58.79 26.286,-85.68 17.524,-26.89 43.876,-48.02 79.058,-63.41 35.181,-15.38 83.405,-23.07 144.671,-23.07 75.178,0 132.499,13.98 171.961,41.93 39.461,27.96 62.938,72.44 70.429,133.44 l -171.358,10.03 c -4.549,-26.48 -14.113,-45.75 -28.694,-57.79 -14.581,-12.04 -34.713,-18.05 -60.397,-18.05 -21.135,0 -37.054,4.48 -47.755,13.44 -10.702,8.96 -16.053,19.86 -16.053,32.71 0,9.36 4.415,17.79 13.243,25.28 8.562,7.76 28.895,14.98 60.999,21.67 79.459,17.12 136.378,34.44 170.757,51.97 34.378,17.52 59.393,39.26 75.044,65.21 15.651,25.95 23.477,54.98 23.477,87.08 0,37.73 -10.434,72.51 -31.302,104.34 -20.868,31.84 -50.03,55.99 -87.485,72.44 -37.456,16.45 -84.676,24.68 -141.662,24.68 -100.059,0 -169.352,-19.26 -207.877,-57.79 -38.526,-38.52 -60.33,-87.48 -65.414,-146.88 z"
           style="fill:white;fill-opacity:1;stroke:none;stroke-width:90.3147px"
           id="path102147" />
      </g>
      <g
         transform="matrix(0.01136051,0,0,0.01059296,2.2972518,-2.6575344)"
         id="g102153"
         style="clip-rule:evenodd;fill:white;fill-opacity:1;fill-rule:evenodd;stroke:none;stroke-width:3.16118;stroke-miterlimit:2">
        <path
           d="m 1009.24,2934.5 h 552.6 v 145.27 h -185.41 v 443.05 h -181.79 v -443.05 h -185.4 z"
           style="fill:white;fill-opacity:1;stroke:none;stroke-width:90.3147px"
           id="path102151" />
      </g>
      <g
         transform="matrix(0.01136051,0,0,0.01059296,2.2972518,-2.6575344)"
         id="g102157"
         style="clip-rule:evenodd;fill:white;fill-opacity:1;fill-rule:evenodd;stroke:none;stroke-width:3.16118;stroke-miterlimit:2">
        <path
           d="m 1643.7,2934.5 h 487.19 v 125.61 H 1825.9 v 93.5 h 282.92 v 120 H 1825.9 v 115.97 h 313.82 v 133.24 H 1643.7 Z"
           style="fill:white;fill-opacity:1;stroke:none;stroke-width:90.3147px"
           id="path102155" />
      </g>
      <g
         transform="matrix(0.01136051,0,0,0.01059296,2.2972518,-2.6575344)"
         id="g102161"
         style="clip-rule:evenodd;fill:white;fill-opacity:1;fill-rule:evenodd;stroke:none;stroke-width:3.16118;stroke-miterlimit:2">
        <path
           d="m 2235.63,2934.5 h 239.18 l 92.3,357.97 91.9,-357.97 h 238.38 v 588.32 h -148.48 v -448.66 l -115.18,448.66 h -134.44 l -114.77,-448.66 v 448.66 h -148.89 z"
           style="fill:white;fill-opacity:1;stroke:none;stroke-width:90.3147px"
           id="path102159" />
      </g>
      <g
         transform="matrix(0.01136051,0,0,0.01059296,2.2972518,-2.6575344)"
         id="g102165"
         style="clip-rule:evenodd;fill:white;fill-opacity:1;fill-rule:evenodd;stroke:none;stroke-width:3.16118;stroke-miterlimit:2">
        <path
           d="m 3679.14,3282.43 159.32,48.16 c -10.7,44.68 -27.56,82 -50.57,111.97 -23.01,29.96 -51.57,52.57 -85.68,67.82 -34.11,15.25 -77.52,22.87 -130.22,22.87 -63.94,0 -116.18,-9.3 -156.71,-27.89 -40.54,-18.59 -75.52,-51.3 -104.94,-98.12 -29.43,-46.82 -44.15,-106.75 -44.15,-179.79 0,-97.38 25.89,-172.22 77.65,-224.53 51.77,-52.3 125.01,-78.45 219.72,-78.45 74.11,0 132.37,14.98 174.77,44.94 42.41,29.97 73.91,75.98 94.51,138.05 l -160.52,35.72 c -5.62,-17.92 -11.51,-31.03 -17.66,-39.33 -10.17,-13.91 -22.61,-24.61 -37.32,-32.1 -14.72,-7.49 -31.17,-11.24 -49.37,-11.24 -41.2,0 -72.77,16.59 -94.7,49.76 -16.59,24.62 -24.88,63.28 -24.88,115.98 0,65.28 9.89,110.03 29.69,134.24 19.8,24.21 47.62,36.32 83.47,36.32 34.78,0 61.07,-9.77 78.86,-29.3 17.79,-19.53 30.7,-47.89 38.73,-85.08 z"
           style="fill:white;fill-opacity:1;stroke:none;stroke-width:90.3147px"
           id="path102163" />
      </g>
      <g
         transform="matrix(0.01136051,0,0,0.01059296,2.2972518,-2.6575344)"
         id="g102169"
         style="clip-rule:evenodd;fill:white;fill-opacity:1;fill-rule:evenodd;stroke:none;stroke-width:3.16118;stroke-miterlimit:2">
        <path
           d="m 3926.34,2934.5 h 487.19 v 125.61 h -304.99 v 93.5 h 282.92 v 120 h -282.92 v 115.97 h 313.82 v 133.24 h -496.02 z"
           style="fill:white;fill-opacity:1;stroke:none;stroke-width:90.3147px"
           id="path102167" />
      </g>
      <g
         transform="matrix(0.01136051,0,0,0.01059296,2.2972518,-2.6575344)"
         id="g102173"
         style="clip-rule:evenodd;fill:white;fill-opacity:1;fill-rule:evenodd;stroke:none;stroke-width:3.16118;stroke-miterlimit:2">
        <path
           d="m 4521.48,2934.5 h 169.76 l 221.52,325.46 V 2934.5 h 171.36 v 588.32 h -171.36 l -220.32,-323.06 v 323.06 h -170.96 z"
           style="fill:white;fill-opacity:1;stroke:none;stroke-width:90.3147px"
           id="path102171" />
      </g>
      <g
         transform="matrix(0.01136051,0,0,0.01059296,2.2972518,-2.6575344)"
         id="g102177"
         style="clip-rule:evenodd;fill:white;fill-opacity:1;fill-rule:evenodd;stroke:none;stroke-width:3.16118;stroke-miterlimit:2">
        <path
           d="m 5163.57,2934.5 h 552.61 v 145.27 h -185.41 v 443.05 h -181.79 v -443.05 h -185.41 z"
           style="fill:white;fill-opacity:1;stroke:none;stroke-width:90.3147px"
           id="path102175" />
      </g>
      <g
         transform="matrix(0.01136051,0,0,0.01059296,2.2972518,-2.6575344)"
         id="g102181"
         style="clip-rule:evenodd;fill:white;fill-opacity:1;fill-rule:evenodd;stroke:none;stroke-width:3.16118;stroke-miterlimit:2">
        <path
           d="m 5798.04,2934.5 h 487.19 v 125.61 h -304.99 v 93.5 h 282.92 v 120 h -282.92 v 115.97 h 313.82 v 133.24 h -496.02 z"
           style="fill:white;fill-opacity:1;stroke:none;stroke-width:90.3147px"
           id="path102179" />
      </g>
      <g
         transform="matrix(0.01136051,0,0,0.01059296,2.2972518,-2.6575344)"
         id="g102185"
         style="clip-rule:evenodd;fill:white;fill-opacity:1;fill-rule:evenodd;stroke:none;stroke-width:3.16118;stroke-miterlimit:2">
        <path
           d="M 6394.39,3522.82 V 2934.5 h 302.98 c 56.19,0 99.13,4.82 128.82,14.45 29.7,9.63 53.65,27.49 71.84,53.57 18.19,26.09 27.29,57.86 27.29,95.31 0,32.64 -6.96,60.8 -20.87,84.48 -13.91,23.68 -33.04,42.87 -57.39,57.59 -15.52,9.36 -36.78,17.12 -63.81,23.27 21.67,7.22 37.46,14.45 47.36,21.67 6.69,4.82 16.38,15.12 29.09,30.9 12.71,15.79 21.2,27.96 25.49,36.52 l 87.88,170.56 H 6767.6 l -97.11,-179.79 c -12.31,-23.27 -23.28,-38.39 -32.91,-45.35 -13.11,-9.09 -27.96,-13.64 -44.55,-13.64 h -16.05 v 238.78 z m 182.59,-349.94 h 76.65 c 8.3,0 24.35,-2.68 48.16,-8.03 12.04,-2.41 21.87,-8.56 29.49,-18.46 7.63,-9.9 11.44,-21.27 11.44,-34.11 0,-19 -6.02,-33.58 -18.06,-43.74 -12.04,-10.17 -34.64,-15.25 -67.82,-15.25 h -79.86 z"
           style="fill:white;fill-opacity:1;stroke:none;stroke-width:90.3147px"
           id="path102183" />
      </g>
    </g>
  </g>
</svg>
