<?xml version="1.0" encoding="UTF-8"?>
<svg id="Layer_1" data-name="Layer 1" xmlns="http://www.w3.org/2000/svg" viewBox="0 0 409.37 95.47">
  <defs>
    <style>
      .cls-1 {
        fill: #2693d1;
      }

      .cls-2 {
        fill: #fff;
      }

      .cls-3, .cls-4 {
        fill: #76469b;
      }

      .cls-4 {
        fill-rule: evenodd;
      }
    </style>
  </defs>
  <path id="path1-7" class="cls-2" d="M305.91,34.33h74.96c6.23,0,11.88,2.54,15.97,6.63,4.23,4.23,6.63,10,6.63,15.98,0,6.24-2.53,11.89-6.62,15.98-4.09,4.09-9.74,6.62-15.98,6.62h-74.07c-.95,1.35-2.02,2.63-3.18,3.79-2.21,2.21-4.78,4.05-7.59,5.43-3.89,1.91-8.2,2.89-12.54,2.89H124.15c-7.53,0-14.79-3.01-20.11-8.33-1.23-1.23-2.34-2.56-3.33-4H27.46c-6.23,0-11.88-2.54-15.97-6.63-4.09-4.09-6.63-9.67-6.63-15.9,0,0,0-.16,0-.16,0-6.24,2.53-11.81,6.62-15.9,4.09-4.09,9.74-6.62,15.98-6.62h74.46c5.36-6.72,13.6-10.71,22.23-10.71h159.34c5.47,0,10.71,1.53,15.22,4.39,2.74,1.75,5.19,3.97,7.2,6.53h0Z"/>
  <path id="path3-8" class="cls-1" d="M283.83,28.19H124.49c-6.51,0-12.43,2.65-16.72,6.94-4.29,4.29-6.95,10.2-6.95,16.72h0v11.36h0c0,6.52,2.66,12.43,6.95,16.72,4.29,4.29,10.2,6.95,16.72,6.95h0s0,0,0,0h0s159.34,0,159.34,0h0s0,0,0,0h0c3.16,0,6.23-.61,9.07-1.78.48-.2.93-.4,1.36-.61,2.29-1.12,4.41-2.64,6.3-4.53h0c.65-.65,1.24-1.31,1.76-1.96.53-.66,1.03-1.37,1.51-2.11,2.38-3.74,3.65-8.1,3.65-12.65v-11.36h0c0-3.16-.62-6.23-1.79-9.07-.2-.48-.4-.93-.61-1.36-1.13-2.3-2.65-4.42-4.52-6.29h-.01c-.65-.66-1.31-1.24-1.96-1.77-.66-.53-1.37-1.03-2.12-1.51-3.74-2.38-8.1-3.65-12.65-3.65h0Z"/>
  <path id="path4-7" class="cls-3" d="M310.32,39.13c3.33,0,37.37-1.22,37.91.82-1.08,2.15-2.61,4.29-10.22,5.02-7.61.74-19.38,3.61-23.38,1.9-4.01-1.71-2.82-4.37-4.3-7.74h0ZM381.38,39.13c4.09.44,1.48,1.49-.39,2.36-5.74,2.69-8.13,6.56-16.5,8.25-8.37,1.69-15.37-2.41-24.05-3.55,1.42-.38,9.91.11,12.71-1.98,2.8-2.09,2.97-3.73,7.04-5.08,7.03,0,17.09-.44,21.19,0h0ZM385.14,74.24c-4.81.57-7.7,1.46-12.11-2.46-1.15-1.02-2.46-1.97-4.36-2.36.28-.16,2.5-1.44,5.33-2.79,4.36-2.07,17.06-7.15,19.5.14,1.49,4.49-4.94,6.62-8.37,7.47ZM309.55,74.75c4.89-9.41,6.32-8.87,21.34-7.54,8.54.87,17.41,2.87,26.01,2.87,3.23,0,6.73.21,9.49.82.89.19,5.83,1.84,1.84,3.86h-58.68ZM327.75,63.62c20.4,3.15,35.8,2.13,55.55-1.7,4.42-.86,8.28,1.68,12.63,1.36,4.86-.35,2.52-13.03.37-15.22-8.8-9.02-25.95,4.61-34.91,5.34-8.95.73-8.49-2.12-13.51-3.21,1.71,1.69,4.41,4.81,8.32,5.76s11.41.96,17.88-1.54c6.47-2.5,13.54-1.91,13.54-1.91,0,0-10.22,3.77-13.83,4.63-3.61.86-7.58,3.47-18.75,2.11-11.18-1.37-11.96-7.43-17.27-9.55-5.3-2.12-24.96.76-25.11,5.27-.21,6.76,9.93,7.87,15.07,8.67Z"/>
  <path id="path5-8" class="cls-3" d="M60.61,74.53c-.47-.24-.67-.51-.52-.82,1.08-2.15,7.71-5.02,10.22-5.02,6.66-.48,17.62-5.02,23.38-1.9,1.19.64,3.36.91,4.31,7.74h-37.39ZM26.95,74.53c-1.03-.67-1.48-1.49.38-2.36,5.74-2.69,15.27-7.49,20.19-8.04,4.92-.55,11.67,2.2,20.35,3.34,0,0-4.8-.32-9.26,2.34-4.46,2.66-6.42,3.37-10.49,4.73h-20.67c-.17,0-.34,0-.51,0ZM14.87,44.13c16.28-10.9,16.06-3.39,24.78.11-.27.16-2.13,1.87-4.96,3.22-4.69,2.24-11.28,4.29-16.55,2.6-3.45-1.11-4.25-4.95-3.27-5.93ZM53.64,38.91h-16.6c-.14.19-.19.43-.14.72.62,3.71,11.22,3.95,14.53,3.95,5.8,0,15.45,1.76,24.53,2.72-1.88-1.22-7.37-3.31-12.41-4.23-6.66-1.22-7.77-2.92-9.91-3.16ZM96.38,45.32c-3.24,3.71-14.51,1.79-16.31,1.23-1.37-.43-12-5.71-12.41-6.76-.39-.99,2.62-.85,2.86-.88h28.26c-.8,2.53-.16,3.85-2.4,6.41ZM95.2,54.02c-.58-1.93-5.72-1.15-9.12-1.73-3.4-.58-7.09-3.29-10.77-3.86-3.68-.57-9.7.27-14.41.07-4.71-.2-10.39-.76-15.55-1.5-6.05.25-12.67,3.83-17.03,4.68-7.7,1.5-11.34-1.7-15.93-1.29-6.83.71-2.02,13.39-.38,15.23,1.1.79,16.23,4.57,19.6,2.19,1.61-1.13-.15-2.45-.77-2.88-2.49-1.71-15.63-3.68-18.29-5.29-2.42-1.47,17.92,1.69,20.86,3.33,2.94,1.64,5.53-.48,6.33-.44,3.53-1.8,3.33-1.87,6.95-2.05,7.35-.36,21.16,4.13,27.26,4.48,6.1.36,17.46-2.72,19.26-3.62,2.69-1.35,2.7-4.91,1.97-7.32h0Z"/>
  <path id="path6-7" class="cls-4" d="M13.17,46.32s-1.44,2.33-1.55,2.88c-.11.55.88-.26,1.99-.04,1.11.22-.63-.3-.44-2.84h0Z"/>
  <path id="path7-7" class="cls-4" d="M15.03,69.29s3.38,2.35,4.73,2.83c1.36.48,5.68-.9,3.9-1.32-1.79-.42-2.46-.19-8.63-1.51Z"/>
  <path id="path8-4" class="cls-2" d="M108.46,5.77c.24.24.36.53.36.86v7.21c0,.4.14.74.42,1.02.28.28.62.41,1.02.41h6.21c.33,0,.49-.16.49-.49s.12-.61.35-.85c.23-.24.52-.35.85-.35s.62.12.85.35c.23.23.35.52.35.85,0,.8-.28,1.49-.85,2.05-.56.56-1.24.85-2.03.85h-6.22c-1.06,0-1.97-.37-2.72-1.12-.75-.75-1.12-1.65-1.12-2.72v-7.21c0-.34.12-.62.35-.85s.52-.35.85-.35.62.11.84.34h0Z"/>
  <path id="path9-4" class="cls-2" d="M124.41,11.8h6.78l-.59-2.62c-.07-.33-.23-.59-.5-.81-.27-.21-.57-.32-.89-.32h-2.83c-.31,0-.61.11-.88.33-.27.22-.44.48-.5.8l-.59,2.62ZM134.7,16.43l.03.26c0,.34-.12.62-.37.85-.24.23-.53.35-.85.35-.29,0-.55-.09-.76-.27-.21-.18-.35-.41-.41-.68l-.62-2.75h-7.87l-.6,2.75c-.07.27-.21.5-.42.68-.22.18-.47.27-.76.27-.32,0-.61-.12-.85-.35-.24-.23-.36-.52-.36-.85l.03-.26,1.74-7.78c.2-.87.64-1.59,1.34-2.16.7-.57,1.5-.85,2.4-.85h2.83c.91,0,1.72.28,2.42.85.7.57,1.15,1.28,1.34,2.14l1.74,7.79Z"/>
  <path id="path10-9" class="cls-2" d="M137.78,9.8h5.58c.32,0,.62-.1.89-.3.27-.2.44-.47.53-.82l.54-2.34c.07-.28.21-.51.42-.67.22-.17.47-.25.76-.25.33,0,.61.12.85.36s.36.53.36.86l-.03.28-.52,2.31c-.12.51-.33.98-.64,1.4.37.28.67.61.9.98.23.37.4.79.51,1.25l.83,3.58.03.28c0,.34-.12.62-.37.85-.24.23-.53.35-.85.35-.29,0-.55-.09-.76-.27-.22-.18-.36-.4-.42-.66l-.83-3.61c-.04-.18-.1-.34-.18-.46-.08-.13-.18-.24-.33-.35-.27-.21-.57-.31-.89-.31h-6.37v4.46c0,.34-.12.62-.35.85-.23.23-.52.35-.85.35s-.62-.12-.86-.36c-.24-.24-.36-.53-.36-.86V6.62c0-.34.12-.62.36-.86.24-.24.53-.36.86-.36s.62.12.85.37c.23.24.35.53.35.85v3.17Z"/>
  <path id="path11-1" class="cls-2" d="M152.22,13.91c0,.38.14.7.41.98.27.27.6.41.99.41h5.15c.39,0,.72-.14.99-.41.27-.27.41-.6.41-.98v-4.51c0-.38-.14-.7-.41-.98-.27-.27-.6-.41-.99-.41h-5.15c-.39,0-.72.14-.99.41-.27.27-.41.6-.41.98v4.51ZM149.85,9.4c0-1.03.37-1.91,1.11-2.65.74-.74,1.63-1.11,2.67-1.11h5.15c1.04,0,1.93.37,2.66,1.11.73.74,1.1,1.62,1.1,2.64v4.51c0,1.03-.37,1.91-1.11,2.65-.74.74-1.62,1.11-2.65,1.11h-5.15c-1.04,0-1.93-.37-2.67-1.11-.74-.74-1.11-1.62-1.11-2.65v-4.51Z"/>
  <path id="path12-5" class="cls-2" d="M176.19,5.64c.34,0,.62.12.85.35.23.23.35.52.35.85s-.12.62-.35.85c-.23.23-.52.35-.85.35h-4.15v8.64c0,.34-.12.62-.36.86-.24.23-.52.35-.84.35-.34,0-.62-.12-.85-.35-.23-.23-.35-.52-.35-.86v-8.64h-4.12c-.34,0-.62-.12-.85-.35-.23-.23-.35-.52-.35-.85s.12-.62.35-.85c.23-.23.52-.35.85-.35h10.67Z"/>
  <path id="path13-5" class="cls-2" d="M182.18,11.8h6.78l-.59-2.62c-.07-.33-.23-.59-.5-.81-.27-.21-.57-.32-.89-.32h-2.83c-.31,0-.61.11-.88.33-.27.22-.44.48-.5.8l-.59,2.62ZM192.47,16.43l.03.26c0,.34-.12.62-.37.85-.24.23-.53.35-.85.35-.29,0-.54-.09-.76-.27-.21-.18-.35-.41-.41-.68l-.62-2.75h-7.87l-.6,2.75c-.07.27-.21.5-.42.68-.22.18-.47.27-.76.27-.33,0-.61-.12-.85-.35-.24-.23-.36-.52-.36-.85l.03-.26,1.74-7.78c.19-.87.64-1.59,1.34-2.16.7-.57,1.5-.85,2.4-.85h2.83c.91,0,1.72.28,2.42.85.7.57,1.15,1.28,1.34,2.14l1.74,7.79Z"/>
  <path id="path14-5" class="cls-2" d="M201.4,5.64h6.08c1.04,0,1.93.37,2.66,1.11.73.74,1.1,1.62,1.1,2.64,0,.87-.27,1.65-.82,2.34-.55.69-1.25,1.14-2.12,1.33l-3.54.8c-.38.09-.57.32-.57.7,0,.21.07.38.22.51.15.14.32.2.51.2h4.73c.32,0,.6.12.83.35.23.23.34.51.34.84s-.11.59-.34.83c-.23.24-.5.36-.83.36h-4.74c-.86,0-1.59-.3-2.19-.9-.6-.6-.9-1.33-.9-2.19,0-.72.22-1.36.67-1.92.44-.56,1.03-.93,1.75-1.09l3.54-.8c.31-.07.57-.23.78-.48.21-.26.31-.55.31-.89,0-.38-.14-.71-.41-.98-.27-.27-.6-.41-.99-.41h-6.07c-.31,0-.47.16-.47.47v8.2c0,.33-.12.61-.35.84-.23.23-.51.35-.84.35s-.61-.12-.84-.35c-.23-.23-.35-.51-.35-.84v-8.2c0-.78.28-1.45.85-2,.55-.55,1.22-.83,2-.83h0Z"/>
  <path id="path15-8" class="cls-2" d="M215.41,13.91c0,.38.13.7.4.98.27.27.6.41.99.41h5.15c.39,0,.72-.14.99-.41.27-.27.41-.6.41-.98v-4.51c0-.38-.14-.7-.41-.98-.27-.27-.6-.41-.99-.41h-5.15c-.39,0-.72.14-.99.41-.27.27-.4.6-.4.98v4.51ZM213.03,9.4c0-1.03.37-1.91,1.11-2.65.74-.74,1.63-1.11,2.67-1.11h5.15c1.04,0,1.93.37,2.66,1.11.73.74,1.1,1.62,1.1,2.64v4.51c0,1.03-.37,1.91-1.11,2.65-.74.74-1.62,1.11-2.65,1.11h-5.15c-1.04,0-1.93-.37-2.67-1.11-.74-.74-1.11-1.62-1.11-2.65v-4.51Z"/>
  <path id="path16-2" class="cls-2" d="M236.45,15.3c.39,0,.72-.13.99-.41.27-.27.41-.6.41-.99s-.14-.72-.41-.99c-.27-.27-.6-.41-.99-.41h-6.57v2.32c0,.31.16.47.47.47h6.1ZM230.35,8.02c-.31,0-.47.16-.47.47v1.64h6.57c.29,0,.54-.1.75-.31.21-.21.31-.45.31-.75s-.1-.54-.31-.75c-.21-.21-.46-.31-.75-.31h-6.1ZM239.12,11.24c.74.74,1.11,1.63,1.11,2.67s-.37,1.93-1.11,2.67-1.63,1.11-2.67,1.11h-6.1c-.79,0-1.46-.28-2.02-.83-.55-.55-.83-1.23-.83-2.02v-6.34c0-.79.28-1.46.83-2.02.55-.55,1.23-.83,2.02-.83h6.1c.94,0,1.75.34,2.42,1.01.67.67,1.01,1.48,1.01,2.42,0,.8-.25,1.52-.76,2.16Z"/>
  <path id="path17-9" class="cls-2" d="M244.31,13.91c0,.38.14.7.41.98.27.27.6.41.99.41h5.15c.39,0,.72-.14.99-.41.27-.27.41-.6.41-.98v-4.51c0-.38-.14-.7-.41-.98-.27-.27-.6-.41-.99-.41h-5.15c-.39,0-.72.14-.99.41-.27.27-.41.6-.41.98v4.51ZM241.93,9.4c0-1.03.37-1.91,1.11-2.65.74-.74,1.63-1.11,2.67-1.11h5.15c1.04,0,1.93.37,2.66,1.11.73.74,1.1,1.62,1.1,2.64v4.51c0,1.03-.37,1.91-1.11,2.65-.74.74-1.62,1.11-2.65,1.11h-5.15c-1.04,0-1.93-.37-2.67-1.11-.74-.74-1.11-1.62-1.11-2.65v-4.51Z"/>
  <path id="path18-8" class="cls-2" d="M268.28,5.64c.34,0,.62.12.85.35.23.23.35.52.35.85s-.12.62-.35.85c-.23.23-.52.35-.85.35h-4.15v8.64c0,.34-.12.62-.36.86-.24.23-.52.35-.84.35-.34,0-.62-.12-.85-.35-.23-.23-.35-.52-.35-.86v-8.64h-4.12c-.34,0-.62-.12-.85-.35-.23-.23-.35-.52-.35-.85s.12-.62.35-.85c.23-.23.52-.35.85-.35h10.67Z"/>
  <path id="path19-2" class="cls-2" d="M270.75,6.63c0-.32.12-.61.35-.84.23-.24.52-.36.86-.36s.62.12.86.36c.24.24.36.52.36.84v10.03c0,.33-.12.61-.36.85-.24.24-.53.36-.86.36s-.62-.12-.86-.37c-.23-.24-.35-.52-.35-.84V6.63Z"/>
  <path id="path20-0" class="cls-2" d="M274.8,9.43c0-1.04.37-1.93,1.11-2.67.74-.74,1.63-1.11,2.67-1.11h6.1c.78,0,1.45.28,2,.83.55.55.83,1.22.83,2,0,.34-.12.62-.35.85-.23.23-.52.34-.84.34s-.6-.11-.83-.34c-.23-.23-.34-.51-.34-.85,0-.3-.16-.46-.47-.46h-6.1c-.39,0-.72.14-.99.41-.27.27-.41.6-.41.99v4.47c0,.39.14.72.41.99.27.27.6.41.99.41h6.1c.31,0,.47-.16.47-.49s.11-.58.34-.81c.23-.23.51-.34.83-.34s.59.11.83.34c.24.23.36.51.36.84,0,.78-.28,1.45-.83,2-.55.55-1.22.83-2,.83h-6.1c-1.04,0-1.93-.37-2.67-1.11-.74-.74-1.11-1.63-1.11-2.67v-4.47Z"/>
  <path id="path21-7" class="cls-2" d="M300.75,5.64c.33,0,.6.11.82.33.22.22.33.49.33.82s-.11.58-.33.8c-.22.22-.5.33-.82.33h-8.41c-.21,0-.38.08-.54.23-.15.15-.23.33-.23.54,0,.39.2.65.6.77l7.44,2.16-.11-.02c.69.14,1.26.5,1.72,1.07.46.58.68,1.22.68,1.92,0,.85-.3,1.57-.89,2.16-.6.6-1.32.9-2.16.9h-8.41c-.31,0-.59-.11-.81-.33-.23-.22-.34-.49-.34-.82s.12-.58.35-.8c.23-.22.5-.33.8-.33h8.41c.21,0,.39-.08.54-.23.15-.15.23-.33.23-.54,0-.39-.2-.65-.6-.77l-7.44-2.16.12.02c-.69-.14-1.27-.5-1.73-1.07-.46-.58-.68-1.22-.68-1.92,0-.84.3-1.55.9-2.16.6-.6,1.32-.9,2.15-.9h8.41Z"/>
  <g>
    <path class="cls-2" d="M113.69,40.62h17.38c2.93,0,5.44,1.05,7.53,3.14,2.09,2.09,3.13,4.63,3.13,7.6,0,2.58-.89,4.95-2.68,7.1l-12.75,15.25c-.7.82-1.56,1.23-2.59,1.23-.82,0-1.54-.27-2.18-.82-.79-.7-1.18-1.56-1.18-2.59,0-.82.26-1.53.77-2.14l12.88-15.38c.67-.82,1-1.7,1-2.64,0-1.09-.39-2.03-1.18-2.82-.79-.79-1.71-1.18-2.77-1.18h-17.38c-.88,0-1.32.46-1.32,1.37s-.34,1.69-1.02,2.35c-.68.65-1.46.98-2.34.98-.94,0-1.73-.33-2.38-.98-.65-.65-.97-1.45-.97-2.39,0-2.24.79-4.14,2.36-5.71,1.57-1.57,3.46-2.35,5.67-2.35Z"/>
    <path class="cls-2" d="M159.38,40.67h14.2c2.18,0,4.04.78,5.58,2.33,1.54,1.56,2.31,3.43,2.31,5.63v17.81c0,2.2-.77,4.07-2.31,5.63-1.54,1.56-3.4,2.33-5.58,2.33h-16.97c-2.9,0-5.38-1.03-7.44-3.1-2.06-2.07-3.08-4.55-3.08-7.44,0-.79.09-1.55.27-2.28l2.77-12.65c.48-2.31,1.72-4.29,3.72-5.94,1.91-1.55,4.08-2.33,6.53-2.33ZM155.57,50.35c.39-1.77.74-3.15,1.04-4.12.3-.97.57-1.64.82-2.01l-.36,3.61c-.91,3.86-2.33,8.92-4.26,15.19-.06.18-.09.47-.09.87,0,1.07.38,1.99,1.13,2.75s1.68,1.15,2.77,1.15h16.97c.88,0,1.32-.44,1.32-1.33v-17.85c0-.89-.44-1.33-1.32-1.33h-14.2c-.94,0-1.75.29-2.45.87-.67.55-1.12,1.29-1.36,2.2Z"/>
    <path class="cls-2" d="M218.81,56.37c2.06,2.07,3.08,4.55,3.08,7.44s-1.03,5.42-3.08,7.49c-2.06,2.07-4.52,3.1-7.4,3.1h-14.43c-2.9,0-5.38-1.03-7.44-3.1-2.06-2.07-3.08-4.56-3.08-7.49s1.03-5.37,3.08-7.44c-1.42-1.8-2.13-3.82-2.13-6.07,0-2.65.94-4.91,2.81-6.8,1.88-1.89,4.13-2.83,6.76-2.83h14.43c2.63,0,4.88.95,6.74,2.85s2.79,4.16,2.79,6.78c0,2.25-.71,4.28-2.13,6.07ZM211.42,67.7c1.09,0,2.01-.38,2.77-1.14.76-.76,1.13-1.69,1.13-2.78s-.4-1.98-1.2-2.76c-.8-.78-1.73-1.16-2.79-1.16h-14.25c-1.12,0-2.06.38-2.83,1.14-.77.76-1.16,1.69-1.16,2.78s.38,2.02,1.13,2.78c.76.76,1.68,1.14,2.77,1.14h14.43ZM196.99,47.32c-.82,0-1.51.29-2.09.87-.57.58-.86,1.28-.86,2.1s.29,1.52.86,2.1c.57.58,1.27.87,2.09.87h14.43c.82,0,1.51-.29,2.09-.87.57-.58.86-1.28.86-2.1s-.29-1.52-.86-2.1c-.57-.58-1.27-.87-2.09-.87h-14.43Z"/>
    <path class="cls-2" d="M263.18,43.45v28.22c0,.94-.33,1.75-1,2.42-.67.67-1.47,1-2.4,1s-1.73-.34-2.38-1.03c-.65-.68-.98-1.48-.98-2.39v-5.52h-18.83c-2.96,0-5.51-1.06-7.62-3.17-2.12-2.11-3.18-4.67-3.18-7.68v-11.85c0-.94.33-1.75,1-2.42.67-.67,1.47-1,2.4-1s1.74.33,2.4,1,1,1.47,1,2.42v11.85c0,1.12.39,2.08,1.18,2.87.79.79,1.72,1.19,2.81,1.19h18.83v-15.91c0-.94.32-1.75.98-2.42.65-.67,1.44-1,2.38-1s1.74.33,2.4,1,1,1.47,1,2.42Z"/>
    <path class="cls-2" d="M280.52,40.67h14.2c2.18,0,4.04.78,5.58,2.33,1.54,1.56,2.31,3.43,2.31,5.63v17.81c0,2.2-.77,4.07-2.31,5.63-1.54,1.56-3.4,2.33-5.58,2.33h-16.97c-2.9,0-5.38-1.03-7.44-3.1-2.06-2.07-3.08-4.55-3.08-7.44,0-.79.09-1.55.27-2.28l2.77-12.65c.48-2.31,1.72-4.29,3.72-5.94,1.91-1.55,4.08-2.33,6.53-2.33ZM276.7,50.35c.39-1.77.74-3.15,1.04-4.12.3-.97.57-1.64.82-2.01l-.36,3.61c-.91,3.86-2.33,8.92-4.26,15.19-.06.18-.09.47-.09.87,0,1.07.38,1.99,1.13,2.75s1.68,1.15,2.77,1.15h16.97c.88,0,1.32-.44,1.32-1.33v-17.85c0-.89-.44-1.33-1.32-1.33h-14.2c-.94,0-1.75.29-2.45.87-.67.55-1.12,1.29-1.36,2.2Z"/>
  </g>
</svg>